<svg width="12" height="10" viewBox="0 0 12 10" fill="none" xmlns="http://www.w3.org/2000/svg">
<path d="M10.9565 2.38095H9.30261L8.34783 1.42857H5.21739V2.38095H7.8887L8.84348 3.33333H10.9565V9.04762H2.6087V4.7619H1.56522V9.04762C1.56522 9.57143 2.03478 10 2.6087 10H10.9565C11.5304 10 12 9.57143 12 9.04762V3.33333C12 2.80952 11.5304 2.38095 10.9565 2.38095ZM4.17391 6.19048C4.17391 7.50476 5.34261 8.57143 6.78261 8.57143C8.22261 8.57143 9.3913 7.50476 9.3913 6.19048C9.3913 4.87619 8.22261 3.80952 6.78261 3.80952C5.34261 3.80952 4.17391 4.87619 4.17391 6.19048ZM6.78261 4.7619C7.64348 4.7619 8.34783 5.40476 8.34783 6.19048C8.34783 6.97619 7.64348 7.61905 6.78261 7.61905C5.92174 7.61905 5.21739 6.97619 5.21739 6.19048C5.21739 5.40476 5.92174 4.7619 6.78261 4.7619ZM2.6087 2.38095H4.17391V1.42857H2.6087V0H1.56522V1.42857H0V2.38095H1.56522V3.80952H2.6087V2.38095Z" fill="black"/>
<path d="M9.12605 2.55795L9.19924 2.63095H9.30261H10.9565C11.4143 2.63095 11.75 2.9686 11.75 3.33333V9.04762C11.75 9.41235 11.4143 9.75 10.9565 9.75H2.6087C2.15087 9.75 1.81522 9.41235 1.81522 9.04762V5.0119H2.3587V9.04762V9.29762H2.6087H10.9565H11.2065V9.04762V3.33333V3.08333H10.9565H8.94685L8.06525 2.20395L7.99206 2.13095H7.8887H5.46739V1.67857H8.24446L9.12605 2.55795ZM2.6087 2.13095H2.3587V2.38095V3.55952H1.81522V2.38095V2.13095H1.56522H0.25V1.67857H1.56522H1.81522V1.42857V0.25H2.3587V1.42857V1.67857H2.6087H3.92391V2.13095H2.6087ZM6.78261 8.32143C5.4587 8.32143 4.42391 7.34569 4.42391 6.19048C4.42391 5.03527 5.4587 4.05952 6.78261 4.05952C8.10652 4.05952 9.1413 5.03527 9.1413 6.19048C9.1413 7.34569 8.10652 8.32143 6.78261 8.32143ZM8.59783 6.19048C8.59783 5.24569 7.75957 4.5119 6.78261 4.5119C5.80565 4.5119 4.96739 5.24569 4.96739 6.19048C4.96739 7.13527 5.80565 7.86905 6.78261 7.86905C7.75957 7.86905 8.59783 7.13527 8.59783 6.19048Z" stroke="white" stroke-opacity="0.5" stroke-width="0.5"/>
</svg>
